<svg version="1.2" overflow="visible" xml:space="preserve" width="202.9" height="202.8"
     xmlns="http://www.w3.org/2000/svg"><g fill="#606"><path d="M.6 115H0v77.6c0 5.6 4.6 10.2 10.2 10.2h79.9C89.4 154.3 49.5 115 .6 115z"/><path
        d="M.6 51H0v33c65.9.3 119.5 53.3 120.2 118.8h34.2C153.8 119 85 51 .6 51z"/><path
        d="M202.9 192.7v-70.1C179.7 65.8 133 21 74.8 0H10.2C4.6 0 0 4.6 0 10.2V20c101.4.3 183.9 82 184.5 182.8h8.2c5.6 0 10.2-4.5 10.2-10.1zM176.2 28.3c9.4 9.4 19 21.3 26.7 31.8v-50c0-5.6-4.5-10.1-10.1-10.1h-51.5c11.9 8.3 24.3 17.8 34.9 28.3z"/></g></svg>